# xmcd
#
# Track frame offsets: 
#        150
#        16809
#        33233
#        48200
#        66209
#        78646
#        94925
#        115268
#        132043
#        145695
#        166992
#        187103
#        211574
#        243838
#        264921
#
# Disc length: 3837 seconds
#
# Revision: 0
# Processed by: cddbd v1.5.2PL0 Copyright (c) Steve Scherf et al.
# Submitted via: ExactAudioCopy v0.99pb4
#
DISCID=be0efb0f
DTITLE=Various Artist - Battle Of The Groups: The Ladies [Disc 2]
DYEAR=2006
DGENRE=R&B
TTITLE0=The Emotions - Best Of My Love
TTITLE1=A Taste Of Honey - Boogie Oogie Oogie
TTITLE2=Labelle - Lady Marmalade
TTITLE3=En Vogue - Giving Him Something He Can Feel
TTITLE4=TLC - Creep
TTITLE5=Sister Sledge - We Are Family
TTITLE6=A Taste Of Honey - Sukiyaki
TTITLE7=The Three Degrees - When Will I See You Again
TTITLE8=The Honey Cone - Want Ads
TTITLE9=The Cover Girls - Wishing On A Star
TTITLE10=The Emotions - Don't Ask My Neighbors
TTITLE11=The Weather Girls - It's Raining Men
TTITLE12=First Choice - The Player - Part 1
TTITLE13=TLC - Waterfalls
TTITLE14=Brownstone - If You Love Me
EXTD=
EXTT0=
EXTT1=
EXTT2=
EXTT3=
EXTT4=
EXTT5=
EXTT6=
EXTT7=
EXTT8=
EXTT9=
EXTT10=
EXTT11=
EXTT12=
EXTT13=
EXTT14=
PLAYORDER=
